<svg height="512pt" viewBox="-36 0 511 512" width="512pt" xmlns="http://www.w3.org/2000/svg"><path d="m416.175781 317.871094h-85.816406c-4.175781 0-7.558594 3.382812-7.558594 7.558594 0 4.175781 3.382813 7.558593 7.558594 7.558593h85.816406c4.027344 0 7.304688 3.277344 7.304688 7.304688v83.511719c0 40.128906-32.515625 72.796874-72.582031 73.0625-39.878907-.265626-72.246094-32.78125-72.246094-72.722657v-91.15625h16.871094c4.175781 0 7.5625-3.382812 7.5625-7.558593 0-4.175782-3.386719-7.558594-7.5625-7.558594h-16.871094v-295.445313c0-12.367187-10.058594-22.425781-22.421875-22.425781h-233.308594c-12.363281 0-22.421875 10.058594-22.421875 22.425781v401.71875c0 48.445313 39.410156 87.855469 87.855469 87.855469h19.046875c4.171875 0 7.558594-3.386719 7.558594-7.558594 0-4.175781-3.386719-7.558594-7.558594-7.558594h-19.046875c-40.109375 0-72.738281-32.628906-72.738281-72.734374v-401.722657c0-4.03125 3.277343-7.308593 7.308593-7.308593h233.304688c4.027343 0 7.304687 3.277343 7.304687 7.308593v401.71875c0 30.21875 15.332032 56.921875 38.628906 72.738281h-159.453124c-4.175782 0-7.558594 3.382813-7.558594 7.558594 0 4.171875 3.382812 7.558594 7.558594 7.558594h208.679687c.109375 0 .21875-.011719.328125-.019531 48.027344-.703125 86.882812-39.984375 86.882812-88.175781v-83.511719c0-12.363281-10.0625-22.421875-22.425781-22.421875zm0 0"/><path d="m28.070312 167.695312c0 4.175782 3.382813 7.558594 7.558594 7.558594h201.742188c4.175781 0 7.558594-3.382812 7.558594-7.558594 0-4.175781-3.382813-7.558593-7.558594-7.558593h-201.742188c-4.175781 0-7.558594 3.382812-7.558594 7.558593zm0 0"/><path d="m35.628906 349.046875h201.742188c4.175781 0 7.558594-3.386719 7.558594-7.5625 0-4.171875-3.382813-7.558594-7.558594-7.558594h-201.742188c-4.175781 0-7.558594 3.386719-7.558594 7.558594 0 4.175781 3.382813 7.5625 7.558594 7.5625zm0 0"/><path d="m87.050781 225.988281h-33.519531c-4.175781 0-7.558594 3.382813-7.558594 7.558594v11.199219c-7.023437 4.808594-11.34375 12.808594-11.34375 21.554687v20.050781c0 7.46875 6.074219 13.546876 13.546875 13.546876h44.234375c7.46875 0 13.546875-6.078126 13.546875-13.546876v-20.050781c0-8.746093-4.324219-16.746093-11.34375-21.554687v-11.199219c0-4.175781-3.386719-7.558594-7.5625-7.558594zm3.789063 58.792969h-41.09375v-18.480469c0-4.4375 2.640625-8.417969 6.726562-10.148437 2.800782-1.179688 4.617188-3.921875 4.617188-6.960938v-8.085937h18.402344v8.085937c0 3.039063 1.820312 5.78125 4.617187 6.960938 4.085937 1.730468 6.730469 5.710937 6.730469 10.148437zm0 0"/><path d="m34.007812 93.703125c0 21.707031 17.023438 37.460937 40.484376 37.460937 23.457031 0 40.484374-15.753906 40.484374-37.460937 0-18.863281-12.921874-31.699219-33.488281-34.046875-2.367187-10.777344-11.984375-18.871094-23.460937-18.871094-4.175782 0-7.558594 3.386719-7.558594 7.5625 0 4.171875 3.382812 7.558594 7.558594 7.558594 3.105468 0 5.84375 1.601562 7.4375 4.019531-19.382813 2.9375-31.457032 15.542969-31.457032 33.777344zm32.925782-18.683594v2.058594c0 4.175781 3.382812 7.5625 7.558594 7.5625 4.171874 0 7.558593-3.386719 7.558593-7.5625v-2.058594c8.132813 1.414063 17.804688 5.804688 17.804688 18.683594 0 15.351563-13.148438 22.34375-25.363281 22.34375-12.21875 0-25.367188-6.992187-25.367188-22.34375 0-12.878906 9.675781-17.269531 17.808594-18.683594zm0 0"/><path d="m55.816406 443.953125c9.703125 9.699219 20.390625 17.414063 30.09375 21.722656 6.210938 2.757813 11.234375 3.765625 15.25 3.765625 6.398438 0 10.253906-2.546875 12.335938-4.632812 3.390625-3.390625 8.015625-11.484375.867187-27.585938-4.304687-9.703125-12.019531-20.390625-21.722656-30.09375s-20.390625-17.417968-30.09375-21.726562c-16.105469-7.144532-24.195313-2.523438-27.585937.867187-3.394532 3.394531-8.015626 11.488281-.867188 27.589844 4.304688 9.703125 12.019531 20.390625 21.722656 30.09375zm-10.199218-46.960937c4.179687-2.734376 19.03125 6.675781 21.066406 8.0625l-4.847656 4.84375c-2.953126 2.953124-2.953126 7.738281 0 10.691406 3.5625 2.949218 7.128906 2.949218 10.691406 0l6.027344-6.027344c1.140624 1.054688 2.273437 2.136719 3.394531 3.257812 1.003906 1.003907 1.984375 2.019532 2.933593 3.042969l-6.042968 6.042969c-2.953125 2.949219-2.953125 7.738281 0 10.6875 3.5625 2.953125 7.128906 2.953125 10.691406 0l4.90625-4.90625c1.386719 2.015625 11.214844 16.808594 8.402344 21.402344-.542969.355468-4.148438.933594-11.894532-2.734375-7.773437-3.679688-16.453124-10.105469-24.4375-18.09375-7.988281-7.988281-14.414062-16.667969-18.09375-24.441407-3.667968-7.746093-3.089843-11.347656-2.796874-11.828124zm0 0"/><path d="m204.523438 217.300781h-61.648438c-4.175781 0-7.558594 3.386719-7.558594 7.558594 0 4.175781 3.382813 7.558594 7.558594 7.558594h61.648438c4.171874 0 7.558593-3.382813 7.558593-7.558594 0-4.171875-3.386719-7.558594-7.558593-7.558594zm0 0"/><path d="m203.84375 244.882812h-60.285156c-4.175782 0-7.5625 3.382813-7.5625 7.558594 0 4.175782 3.386718 7.558594 7.5625 7.558594h60.285156c4.175781 0 7.558594-3.386719 7.558594-7.558594 0-4.175781-3.382813-7.558594-7.558594-7.558594zm0 0"/><path d="m203.84375 390.390625h-60.285156c-4.175782 0-7.5625 3.382813-7.5625 7.558594s3.386718 7.558593 7.5625 7.558593h60.285156c4.175781 0 7.558594-3.386718 7.558594-7.558593 0-4.175781-3.382813-7.558594-7.558594-7.558594zm0 0"/><path d="m203.84375 421.796875h-60.285156c-4.175782 0-7.5625 3.382813-7.5625 7.558594 0 4.171875 3.386718 7.558593 7.5625 7.558593h60.285156c4.175781 0 7.558594-3.386718 7.558594-7.558593 0-4.175781-3.382813-7.558594-7.558594-7.558594zm0 0"/><path d="m203.84375 276.285156h-60.285156c-4.175782 0-7.5625 3.386719-7.5625 7.5625 0 4.171875 3.386718 7.558594 7.5625 7.558594h60.285156c4.175781 0 7.558594-3.386719 7.558594-7.558594 0-4.175781-3.382813-7.5625-7.558594-7.5625zm0 0"/><path d="m142.875 59.105469h61.648438c4.171874 0 7.558593-3.382813 7.558593-7.558594s-3.386719-7.558594-7.558593-7.558594h-61.648438c-4.175781 0-7.558594 3.382813-7.558594 7.558594s3.382813 7.558594 7.558594 7.558594zm0 0"/><path d="m142.875 91.21875h61.648438c4.171874 0 7.558593-3.382812 7.558593-7.558594 0-4.175781-3.386719-7.558594-7.558593-7.558594h-61.648438c-4.175781 0-7.558594 3.382813-7.558594 7.558594 0 4.175782 3.382813 7.558594 7.558594 7.558594zm0 0"/><path d="m142.875 123.332031h61.648438c4.171874 0 7.558593-3.386719 7.558593-7.558593 0-4.175782-3.386719-7.558594-7.558593-7.558594h-61.648438c-4.175781 0-7.558594 3.382812-7.558594 7.558594 0 4.171874 3.382813 7.558593 7.558594 7.558593zm0 0"/></svg>