<?xml version="1.0" encoding="iso-8859-1"?>
<!-- Generator: Adobe Illustrator 16.0.0, SVG Export Plug-In . SVG Version: 6.00 Build 0)  -->
<!DOCTYPE svg PUBLIC "-//W3C//DTD SVG 1.1//EN" "http://www.w3.org/Graphics/SVG/1.1/DTD/svg11.dtd">
<svg version="1.1" id="Capa_1" xmlns="http://www.w3.org/2000/svg" xmlns:xlink="http://www.w3.org/1999/xlink" x="0px" y="0px"
	 width="968px" height="968px" viewBox="0 0 968 968" style="enable-background:new 0 0 968 968;" xml:space="preserve">
<g>
	<g>
		<path d="M439.33,919.7c118.8,0,225.201-52.8,297.1-136.3c5.7,1.8,11.8,2.8,18.2,2.8c33.4,0,60.4-27,60.4-60.4
			c0-16-6.2-30.5-16.301-41.3c21-48,32.601-101.1,32.601-156.9V241.3c0-11.4-1-22.6-2.9-33.5l27-27c39.8-39.8,39.8-104.2,0-144
			c-39.8-39.8-104.2-39.8-144,0l-17.5,17.5c-18.5-5.8-38.3-9-58.7-9c-19.899,0-39.1,3-57.199,8.5l-17-17
			C521.229-3,456.83-3,417.03,36.8c-39.801,39.8-39.801,104.2,0,144l25.3,25.3c-2.101,11.4-3.2,23.2-3.2,35.2v195.5h-83.9V15
			c0-8.3-6.699-15-15-15h-66c-8.3,0-15,6.7-15,15v938c0,8.3,6.7,15,15,15h66c8.301,0,15-6.7,15-15v-33.3H439.33z M736.229,250.5
			c-13.8,0-25-11.2-25-25s11.2-25,25-25c13.801,0,25,11.2,25,25C761.33,239.3,750.03,250.5,736.229,250.5z M750.63,79.3
			c17.2-17.2,45.2-17.2,62.4,0c17.199,17.2,17.199,45.2,0,62.4l-5.7,5.7c-14.4-26.2-34.5-48.8-58.8-66L750.63,79.3z M635.33,209.5
			c21.8,0,39.5,17.7,39.5,39.5v63c0,21.8-17.7,39.5-39.5,39.5s-39.5-17.7-39.5-39.5v-63C595.83,227.2,613.53,209.5,635.33,209.5z
			 M559.53,225.4c0,13.8-11.2,25-25,25c-13.801,0-25-11.2-25-25c0-13.8,11.199-25,25-25C548.33,200.4,559.53,211.6,559.53,225.4z
			 M459.629,141.7c-17.2-17.2-17.2-45.2,0-62.4c17.2-17.2,45.201-17.2,62.401,0l1.3,1.3c-24.4,17-44.701,39.5-59.3,65.6
			L459.629,141.7z M355.429,813V582.2V537.6V537c21.9,0,51.4,0,83.9,0c19.8,0,40.6,0,61.5,0c14.2,0,28.2,1,42.1-2.2
			c13.7-3.2,26.601-9.2,37.7-17.8c22.8-17.7,36.8-45.5,37.8-74.3c0.101-2.7,0.101-4.101,0.101-4.101s0.199,1.4,0.5,4.101
			c3.399,30.1-8.601,61.5-29.301,83.2C578.83,537.3,565.43,546.3,550.83,552.1c-15.5,6.101-32,7.601-48.3,9.9
			c-21.5,3-42.901,5.9-63.201,8.7V612c33.6-15.1,74.5-11.6,104.701,9.7c12.699,9,22.399,20.2,29,31.6c6.699,11.4,10.5,23,12.3,33.3
			c2.7,14.7,0.7,29.101-1.101,43.801c-0.5,3.899-0.699,6-0.699,6s0-2.101,0-6c0-25.9-2.601-50.2-19-71.301
			c-7.2-9.399-16.9-18-28.601-24.3c-20.1-10.899-44.6-13.3-66.4-6.2c-18,5.801-34.101,18-44,34.2c-3.7,5.9-6.5,12.2-8.5,18.601
			c-2,6.5-3,13.1-3.2,19.699c0,16.101,0,32,0,47.4c0,23,0.1,44.8,0.1,64.7h-58.5V813z"/>
		<path d="M194.83,148.1c-29.3-29.3-70.9-39-108.3-29c-10,37.4-0.3,79,29,108.3c29.3,29.3,70.9,39,108.3,29
			C233.83,219,224.129,177.4,194.83,148.1z"/>
		<path d="M86.529,289.8c-10,37.4-0.3,79,29,108.3c29.3,29.301,70.9,39,108.3,29c10-37.399,0.3-79-29-108.3
			C165.429,289.5,123.929,279.8,86.529,289.8z"/>
	</g>
</g>
<g>
</g>
<g>
</g>
<g>
</g>
<g>
</g>
<g>
</g>
<g>
</g>
<g>
</g>
<g>
</g>
<g>
</g>
<g>
</g>
<g>
</g>
<g>
</g>
<g>
</g>
<g>
</g>
<g>
</g>
</svg>
